<mxfile host="app.diagrams.net" modified="2024-04-07T16:00:28.334Z" agent="Mozilla/5.0 (Macintosh; Intel Mac OS X 10_15_7) AppleWebKit/537.36 (KHTML, like Gecko) Chrome/119.0.0.0 Safari/537.36" etag="GPL66pwR_cfd-XpaNjWL" version="24.0.0" type="github">
  <diagram name="Page-1" id="1DXnRXoE9hUuvViqrK-p">
    <mxGraphModel dx="1042" dy="701" grid="1" gridSize="10" guides="1" tooltips="1" connect="1" arrows="1" fold="1" page="1" pageScale="1" pageWidth="827" pageHeight="1169" math="0" shadow="0">
      <root>
        <mxCell id="0" />
        <mxCell id="1" parent="0" />
        <mxCell id="mJRpWRJbqlAUoeGUECci-8" value="" style="edgeStyle=orthogonalEdgeStyle;rounded=0;orthogonalLoop=1;jettySize=auto;html=1;" edge="1" parent="1" source="mJRpWRJbqlAUoeGUECci-1" target="mJRpWRJbqlAUoeGUECci-7">
          <mxGeometry relative="1" as="geometry" />
        </mxCell>
        <mxCell id="mJRpWRJbqlAUoeGUECci-10" style="edgeStyle=orthogonalEdgeStyle;rounded=0;orthogonalLoop=1;jettySize=auto;html=1;entryX=0.5;entryY=0;entryDx=0;entryDy=0;" edge="1" parent="1" source="mJRpWRJbqlAUoeGUECci-1" target="mJRpWRJbqlAUoeGUECci-9">
          <mxGeometry relative="1" as="geometry" />
        </mxCell>
        <mxCell id="mJRpWRJbqlAUoeGUECci-1" value="HOST&lt;div&gt;(asafe-host)&lt;/div&gt;" style="rounded=0;whiteSpace=wrap;html=1;fillColor=#dae8fc;strokeColor=#6c8ebf;" vertex="1" parent="1">
          <mxGeometry x="150" y="240" width="180" height="90" as="geometry" />
        </mxCell>
        <mxCell id="mJRpWRJbqlAUoeGUECci-3" style="edgeStyle=orthogonalEdgeStyle;rounded=0;orthogonalLoop=1;jettySize=auto;html=1;entryX=1;entryY=0.5;entryDx=0;entryDy=0;fillColor=#d5e8d4;strokeColor=#82b366;" edge="1" parent="1" source="mJRpWRJbqlAUoeGUECci-2" target="mJRpWRJbqlAUoeGUECci-9">
          <mxGeometry relative="1" as="geometry" />
        </mxCell>
        <mxCell id="mJRpWRJbqlAUoeGUECci-4" value="Dashboard.js" style="edgeLabel;html=1;align=center;verticalAlign=middle;resizable=0;points=[];" vertex="1" connectable="0" parent="mJRpWRJbqlAUoeGUECci-3">
          <mxGeometry x="0.0267" y="-1" relative="1" as="geometry">
            <mxPoint as="offset" />
          </mxGeometry>
        </mxCell>
        <mxCell id="mJRpWRJbqlAUoeGUECci-2" value="&lt;div&gt;REMOTE&lt;/div&gt;&lt;div&gt;(asafe-remote)&lt;/div&gt;" style="rounded=0;whiteSpace=wrap;html=1;fillColor=#d5e8d4;strokeColor=#82b366;" vertex="1" parent="1">
          <mxGeometry x="480" y="240" width="180" height="90" as="geometry" />
        </mxCell>
        <mxCell id="mJRpWRJbqlAUoeGUECci-7" value="Homepage" style="whiteSpace=wrap;html=1;rounded=0;" vertex="1" parent="1">
          <mxGeometry x="80" y="425" width="120" height="60" as="geometry" />
        </mxCell>
        <mxCell id="mJRpWRJbqlAUoeGUECci-9" value="Dashboard page" style="whiteSpace=wrap;html=1;rounded=0;" vertex="1" parent="1">
          <mxGeometry x="270" y="425" width="120" height="60" as="geometry" />
        </mxCell>
      </root>
    </mxGraphModel>
  </diagram>
</mxfile>
